<svg width="40" height="40" viewBox="0 0 40 40" fill="none" xmlns="http://www.w3.org/2000/svg">
<rect width="40" height="40" rx="8" fill="#FEEEEE"/>
<path d="M29.98 23.67C29.94 23.61 29.89 23.55 29.84 23.5C29.03 22.57 27.83 22 26.5 22C25.24 22 24.09 22.52 23.27 23.36C22.48 24.17 22 25.28 22 26.5C22 27.34 22.24 28.14 22.65 28.82C22.88 29.2 23.17 29.55 23.51 29.84C23.56 29.89 23.61 29.93 23.67 29.98C23.67 29.98 23.67 29.98 23.68 29.98C24.44 30.62 25.42 31 26.5 31C28.14 31 29.57 30.12 30.35 28.82C30.58 28.43 30.76 28 30.87 27.55C30.96 27.21 31 26.86 31 26.5C31 25.43 30.62 24.44 29.98 23.67ZM28.23 28.21C28.08 28.36 27.89 28.43 27.7 28.43C27.51 28.43 27.32 28.36 27.17 28.21L26.51 27.55L25.82 28.24C25.67 28.39 25.48 28.46 25.29 28.46C25.1 28.46 24.91 28.39 24.76 28.24C24.47 27.95 24.47 27.47 24.76 27.18L25.45 26.49L24.79 25.83C24.5 25.54 24.5 25.06 24.79 24.77C25.08 24.48 25.56 24.48 25.85 24.77L26.51 25.43L27.14 24.8C27.43 24.51 27.91 24.51 28.2 24.8C28.49 25.09 28.49 25.57 28.2 25.86L27.57 26.49L28.23 27.15C28.53 27.44 28.53 27.91 28.23 28.21Z" fill="#F07E7E"/>
<path d="M22.73 13.86V10.5C22.73 10.22 22.51 10 22.23 10H17.77C17.49 10 17.27 10.22 17.27 10.5V13.86C17.27 14.14 17.49 14.36 17.77 14.36H22.23C22.51 14.36 22.73 14.14 22.73 13.86Z" fill="#F07E7E"/>
<path d="M15.25 10.0207C12.69 10.1807 10.94 11.5007 10.29 13.7007C10.19 14.0307 10.43 14.3607 10.77 14.3607H15.27C15.55 14.3607 15.77 14.1407 15.77 13.8607V10.5207C15.77 10.2407 15.53 10.0007 15.25 10.0207Z" fill="#F07E7E"/>
<path d="M24.75 10.0109C27.31 10.1709 29.06 11.4909 29.71 13.6909C29.81 14.0209 29.57 14.3509 29.23 14.3509H24.73C24.45 14.3509 24.23 14.1309 24.23 13.8509V10.5109C24.23 10.2309 24.47 9.99093 24.75 10.0109Z" fill="#F07E7E"/>
<path d="M30 16.3594V20.7394C30 21.1094 29.61 21.3494 29.28 21.1794C28.44 20.7394 27.48 20.4994 26.5 20.4994C24.89 20.4994 23.32 21.1594 22.2 22.3094C21.1 23.4294 20.5 24.9194 20.5 26.4994C20.5 27.3094 20.82 28.3494 21.22 29.2194C21.38 29.5694 21.14 29.9994 20.75 29.9994H15.81C12.6 29.9994 10 27.3994 10 24.1894V16.3594C10 16.0794 10.22 15.8594 10.5 15.8594H29.5C29.78 15.8594 30 16.0794 30 16.3594Z" fill="#F07E7E"/>
</svg>
